<svg width="1440" height="242" viewBox="0 0 1440 242" fill="none" xmlns="http://www.w3.org/2000/svg">
<path fill-rule="evenodd" clip-rule="evenodd" d="M53.2325 28.3622C88.055 153.316 16.5017 179.07 9.0454 191.575L53.2325 28.3622Z" fill="#FCEFEF"/>
<path fill-rule="evenodd" clip-rule="evenodd" d="M4.40341 213.288C-25.2221 117.179 54.0733 77.6019 53.2323 28.3621L4.40341 213.288Z" fill="#FCEFEF"/>
<path fill-rule="evenodd" clip-rule="evenodd" d="M141.756 110.304C120.15 193.41 43.2647 202.411 19.7587 205.711L141.756 110.304Z" fill="#FCEFEF"/>
<path fill-rule="evenodd" clip-rule="evenodd" d="M5.20283 220.849C29.3093 128.856 114.792 119.736 141.756 110.304L5.20283 220.849Z" fill="#FCEFEF"/>
<path fill-rule="evenodd" clip-rule="evenodd" d="M1425.01 232C1495.66 128.11 1391.51 72.0289 1416.83 0C1329.38 136.434 1414.52 122.256 1427.48 204.357" fill="#FCEFEF"/>
<path fill-rule="evenodd" clip-rule="evenodd" d="M1440.39 223.873C1423.04 126.576 1336.2 127.508 1314.83 84.0833C1340.61 208.926 1414.49 199.378 1426.6 206.97" fill="#FCEFEF"/>
</svg>
